# xmcd
#
# Track frame offsets:
#	150
#	4625
#	22139
#	39570
#	57944
#	74123
#	89880
#	104757
#	120814
#	137866
#
# Disc length: 2034 seconds
#
# Revision: 1
# Processed by: cddbd v1.5.2PL0 Copyright (c) Steve Scherf et al.
# Submitted via: EasyCDDAExtractor 15.3.0.1
#
DISCID=9207f00a
DTITLE=Limi-T 21 - El Grupo Del Pueblo
DYEAR=2002
DGENRE=Latin
TTITLE0=Introduccion WLIM 21
TTITLE1=Me Gusta
TTITLE2=Perdoname
TTITLE3=¡Arranca En Fa!
TTITLE4=Perdoname
TTITLE5=Pa' Ti Na' Ma'
TTITLE6=Esto 'Ta Malo Loco
TTITLE7=Sigo Enamorado
TTITLE8=Cogelo Con Calma
TTITLE9=Sigo Enamorado (Version Acustica)
EXTD=
EXTT0=
EXTT1=
EXTT2=
EXTT3=
EXTT4=
EXTT5=
EXTT6=
EXTT7=
EXTT8=
EXTT9=
PLAYORDER=
